<svg xmlns="http://www.w3.org/2000/svg" style="display:none;">
    <symbol id="link-arrow-small" width="7" height="6" viewBox="0 0 7 6">
        <path d="M4.47 2.876H.037v1.076H4.47L3.075 5.357l.767.77 2.705-2.72L3.86.69l-.767.783z"/>
    </symbol>
    <symbol id="advantages-icon1" width="54" height="42" viewBox="0 0 54 42">
        <g><g><path fill="#0093b7" d="M13.48 18.75H8.978v-4.5h4.502zm-4.502 4.5h4.502v4.5H8.978zm45.025.014c0 9.919-8.073 17.988-17.997 17.988-3.153 0-6.116-.82-8.696-2.25H0V5.248h4.475v29.254h17.5a17.887 17.887 0 0 1-3.966-11.238c0-3.221.867-6.299 2.45-9.015h5.546c-2.246 2.482-3.493 5.648-3.493 9.015 0 7.437 6.052 13.488 13.494 13.488s13.495-6.051 13.495-13.488c0-7.439-6.04-13.515-13.482-13.515h-4.502V.748h4.476v4.501c9.918.007 18.01 8.1 18.01 18.015zM29.24 9.749H6.753V.748h4.476v4.5h18.01zm9.005 4.502v8.068l6.121 6.091-3.184 3.182-7.413-7.41v-9.931z"/></g></g>
    </symbol>
    <symbol id="advantages-icon2" width="48" height="45" viewBox="0 0 48 45">
        <g><g><path fill="#0093b7" d="M47.654 8.738v13.305l-23.83 8.666-23.831-8.666V8.738zm-3.972 3.971H3.965v6.553l19.858 7.221 19.859-7.22zm0 15.887l3.972-1.986v17.873H-.007V26.61l3.972 1.986v11.915h39.717zm-9.93-23.83H13.895V.794h19.859z"/></g></g>
    </symbol>
    <symbol id="advantages-icon3" width="56" height="54" viewBox="0 0 56 54">
        <g><g><path fill="#0093b7" d="M19.372 49.813h17.245v3.447H19.372zM45.24 29.137c0 5.56-2.717 10.806-7.267 14.036-.852.604-1.36 1.663-1.36 2.832v2.086H19.366v-2.15c0-1.124-.587-2.203-1.615-2.96-4.43-3.272-6.984-8.296-7.002-13.784-.032-9.252 7.465-17.004 16.713-17.282l.532-.009c9.508 0 17.245 7.73 17.245 17.23zm-3.45 0c0-7.6-6.189-13.785-13.795-13.785l-.428.007c-7.396.223-13.393 6.424-13.368 13.826.015 4.388 2.056 8.406 5.604 11.025 1.538 1.135 2.548 2.705 2.887 4.435h10.6c.328-1.742 1.281-3.285 2.685-4.282a13.795 13.795 0 0 0 5.816-11.226zm-3.747 2.48l-2.862 1.92-2.306-3.434-4.894 4.876-4.914-4.87-2.26 3.423-2.88-1.898 4.581-6.936 5.467 5.42 5.432-5.412zM29.72 7.637H26.27V.743h3.45zm26.286 20.478v3.447h-6.898v-3.447zm-49.112.16v3.447H-.005v-3.447zm5.592-15.85l-2.44 2.436-4.877-4.873L7.607 7.55zM46.668 7.55l2.439 2.437-4.878 4.873-2.438-2.437z"/></g></g>
    </symbol>
    <symbol id="advantages-icon4" width="45" height="45" viewBox="0 0 45 45">
        <g><g><path fill="#0093b7" d="M41.045 17.128v1.5c0 15.267-11.098 21.898-19.446 25.557l-.83.364-.83-.364C11.591 40.534.493 33.91.493 18.628V4.148l2.336.35c1.208.182 2.47.274 3.747.274 4.774 0 9.302-1.26 13.096-3.643l1.097-.69 1.097.69c3.794 2.383 8.322 3.643 13.096 3.643.537 0 1.068-.025 1.596-.057l-4.006 3.911c-4.223-.331-8.24-1.52-11.783-3.515-4.211 2.372-9.09 3.62-14.193 3.62-.681 0-1.358-.022-2.028-.067v9.964c0 9.78 5.012 16.463 16.221 21.575C30.953 35.55 36.006 29.6 36.85 21.226zm-20.127 14.05L9.364 22.136l2.534-3.089 8.723 6.824L41.64 5.353l2.867 2.798z"/></g></g>
    </symbol>
    <symbol id="mobile-icon" width="12" height="18" viewBox="0 0 12 18">
        <g><g><path fill="#a0c5cf" d="M9.538 18c-1.841 0-5.243-2.701-7.372-6.72l-.04-.079.537-.432-.578.358C-.033 7.127-.474 2.594.443.867.74.313 1.185.004 1.7 0l2.176.106c.412.026.782.284.998.691l.045.092c.163.32.17.585.18.997.004.151.009.343.021.595.045.404.108.965.173 1.334.127.73-.255 1.445-.87 1.631l-.567.164c-.021-.005-.016-.033-.016-.033-.04.243.204 1.244 1.033 3.006.145.306.27.556.348.705.077.144.213.388.385.68.916 1.546 1.564 2.288 1.823 2.455l.445-.445c.458-.478 1.244-.467 1.745.006.263.248.679.592 1.012.863.161.114.312.215.43.295.339.228.55.371.728.716l.027.045c.216.408.234.884.05 1.273l-1.002 2.058c-.278.506-.743.766-1.326.766zM3.32 10.562c1.939 3.66 4.977 5.996 6.217 5.996.105 0 .155-.021.164-.029l.943-1.936-.01-.02c-.036-.048-.16-.131-.278-.212a20.091 20.091 0 0 1-.493-.34c-.384-.31-.824-.674-1.118-.952l-.347.371a1.36 1.36 0 0 1-.983.438c-.343-.006-1.085-.02-2.932-3.137a23.284 23.284 0 0 1-.418-.738 21.943 21.943 0 0 1-.379-.768c-1.553-3.3-1.19-3.999-1.034-4.298a1.43 1.43 0 0 1 .858-.72l.468-.135A32.113 32.113 0 0 1 3.794 2.6c-.017-.31-.022-.514-.026-.675-.004-.151-.008-.308-.018-.35l-.02-.035-2.055-.102c.011.01-.089.109-.182.408-.418 1.335-.152 4.98 1.747 8.565l.045.08-.542.43z"/></g></g>
    </symbol>
    <symbol id="mail-icon" width="20" height="14" viewBox="0 0 20 14">
        <g><g><path fill="#a0c5cf" d="M19.333 1.166v11.666c0 .643-.523 1.167-1.167 1.167H1.834a1.168 1.168 0 0 1-1.167-1.167V1.166C.667.523 1.19 0 1.834 0h16.332c.644 0 1.167.523 1.167 1.166zm-1.556.389H2.222v10.889h15.555zM4.007 9.56L6.567 7l-2.56-2.562a.778.778 0 1 1 1.1-1.1L10 8.233l4.895-4.895a.777.777 0 1 1 1.1 1.1l-2.561 2.56 2.56 2.562a.778.778 0 1 1-1.099 1.1L12.334 8.1 10 10.433 7.667 8.099l-2.56 2.561a.778.778 0 0 1-1.1-1.1z"/></g></g>
    </symbol>
    <symbol id="slider-arrow-prev" width="12" height="10" viewBox="0 0 12 10">
        <g><g><path d="M3.828 5.986H12V4.001H3.828L6.4 1.411 4.986-.01 0 5.008l4.951 5.006 1.414-1.443z"/></g></g>
    </symbol>
    <symbol id="slider-arrow-next" width="12" height="10" viewBox="0 0 12 10">
        <g><g><path d="M8.172 5.986H0V4.001h8.172L5.6 1.411 7.014-.01 12 5.008l-4.951 5.006-1.414-1.443z"/></g></g>
    </symbol>
    <symbol id="loop-icon" viewBox="0 0 32 32">
        <path d="M27.414,24.586l-5.077-5.077C23.386,17.928,24,16.035,24,14c0-5.514-4.486-10-10-10S4,8.486,4,14  s4.486,10,10,10c2.035,0,3.928-0.614,5.509-1.663l5.077,5.077c0.78,0.781,2.048,0.781,2.828,0  C28.195,26.633,28.195,25.367,27.414,24.586z M7,14c0-3.86,3.14-7,7-7s7,3.14,7,7s-3.14,7-7,7S7,17.86,7,14z"/><path d="M19,14c0,0.552-0.448,1-1,1h-3v3c0,0.552-0.448,1-1,1s-1-0.448-1-1v-3h-3c-0.552,0-1-0.448-1-1s0.448-1,1-1  h3v-3c0-0.552,0.448-1,1-1s1,0.448,1,1v3h3C18.552,13,19,13.448,19,14z"/>
    </symbol>
    <symbol id="date-icon" width="34" height="26" viewBox="0 0 34 26">
        <g><g><path fill="#a0c5cf" d="M8.837 11.64H6.119V8.923h2.718zm-2.718 2.717h2.718v2.717H6.119zm27.182.008c0 5.989-4.874 10.86-10.865 10.86-1.904 0-3.692-.495-5.25-1.358H.698V3.489H3.4v17.66h10.565a10.8 10.8 0 0 1-2.394-6.784c0-1.944.523-3.802 1.48-5.442h3.347a8.066 8.066 0 0 0-2.109 5.442c0 4.49 3.654 8.143 8.147 8.143s8.147-3.653 8.147-8.143-3.646-8.159-8.14-8.159h-2.717V.772h2.702V3.49C28.415 3.494 33.3 8.379 33.3 14.365zM18.35 6.206H4.774V.772h2.703V3.49H18.35zm5.436 2.718v4.87l3.695 3.678-1.922 1.921-4.475-4.473V8.924z"/></g></g>
    </symbol>
    <symbol id="date-icon-small" width="22" height="16" viewBox="0 0 22 16">
        <g><g><path fill="#a2c5cf" d="M5.84 7.14H4.122V5.423H5.84zM4.122 8.857H5.84v1.718H4.122zm17.181.005c0 3.785-3.08 6.865-6.867 6.865a6.827 6.827 0 0 1-3.319-.859H.696V1.988h1.708v11.163h6.678a6.828 6.828 0 0 1-1.514-4.289c0-1.229.33-2.403.935-3.439h2.116a5.097 5.097 0 0 0-1.333 3.44 5.154 5.154 0 0 0 5.15 5.146c2.84 0 5.149-2.309 5.149-5.147s-2.304-5.156-5.144-5.156h-1.719V.27h1.709v1.717c3.784.003 6.872 3.09 6.872 6.874zm-9.45-5.156h-8.58V.27H4.98v1.717h6.872zm3.437 1.717v3.079l2.335 2.324-1.214 1.214-2.83-2.827v-3.79z"/></g></g>
    </symbol>
</svg>
