<svg xmlns="http://www.w3.org/2000/svg" style="display:none;">
    <symbol id="link-arrow-small" width="7" height="6" viewBox="0 0 7 6">
        <path d="M4.47 2.876H.037v1.076H4.47L3.075 5.357l.767.77 2.705-2.72L3.86.69l-.767.783z"/>
    </symbol>
    <symbol id="advantages-icon1" viewBox="0 0 54 42">
        <g><g><path fill="#0093b7" d="M13.48 18.75H8.978v-4.5h4.502zm-4.502 4.5h4.502v4.5H8.978zm45.025.014c0 9.919-8.073 17.988-17.997 17.988-3.153 0-6.116-.82-8.696-2.25H0V5.248h4.475v29.254h17.5a17.887 17.887 0 0 1-3.966-11.238c0-3.221.867-6.299 2.45-9.015h5.546c-2.246 2.482-3.493 5.648-3.493 9.015 0 7.437 6.052 13.488 13.494 13.488s13.495-6.051 13.495-13.488c0-7.439-6.04-13.515-13.482-13.515h-4.502V.748h4.476v4.501c9.918.007 18.01 8.1 18.01 18.015zM29.24 9.749H6.753V.748h4.476v4.5h18.01zm9.005 4.502v8.068l6.121 6.091-3.184 3.182-7.413-7.41v-9.931z"/></g></g>
    </symbol>
    <symbol id="advantages-icon2" viewBox="0 0 48 45">
        <g><g><path fill="#0093b7" d="M47.654 8.738v13.305l-23.83 8.666-23.831-8.666V8.738zm-3.972 3.971H3.965v6.553l19.858 7.221 19.859-7.22zm0 15.887l3.972-1.986v17.873H-.007V26.61l3.972 1.986v11.915h39.717zm-9.93-23.83H13.895V.794h19.859z"/></g></g>
    </symbol>
    <symbol id="advantages-icon3" viewBox="0 0 56 54">
        <g><g><path fill="#0093b7" d="M19.372 49.813h17.245v3.447H19.372zM45.24 29.137c0 5.56-2.717 10.806-7.267 14.036-.852.604-1.36 1.663-1.36 2.832v2.086H19.366v-2.15c0-1.124-.587-2.203-1.615-2.96-4.43-3.272-6.984-8.296-7.002-13.784-.032-9.252 7.465-17.004 16.713-17.282l.532-.009c9.508 0 17.245 7.73 17.245 17.23zm-3.45 0c0-7.6-6.189-13.785-13.795-13.785l-.428.007c-7.396.223-13.393 6.424-13.368 13.826.015 4.388 2.056 8.406 5.604 11.025 1.538 1.135 2.548 2.705 2.887 4.435h10.6c.328-1.742 1.281-3.285 2.685-4.282a13.795 13.795 0 0 0 5.816-11.226zm-3.747 2.48l-2.862 1.92-2.306-3.434-4.894 4.876-4.914-4.87-2.26 3.423-2.88-1.898 4.581-6.936 5.467 5.42 5.432-5.412zM29.72 7.637H26.27V.743h3.45zm26.286 20.478v3.447h-6.898v-3.447zm-49.112.16v3.447H-.005v-3.447zm5.592-15.85l-2.44 2.436-4.877-4.873L7.607 7.55zM46.668 7.55l2.439 2.437-4.878 4.873-2.438-2.437z"/></g></g>
    </symbol>
    <symbol id="advantages-icon4" viewBox="0 0 45 45">
        <g><g><path fill="#0093b7" d="M41.045 17.128v1.5c0 15.267-11.098 21.898-19.446 25.557l-.83.364-.83-.364C11.591 40.534.493 33.91.493 18.628V4.148l2.336.35c1.208.182 2.47.274 3.747.274 4.774 0 9.302-1.26 13.096-3.643l1.097-.69 1.097.69c3.794 2.383 8.322 3.643 13.096 3.643.537 0 1.068-.025 1.596-.057l-4.006 3.911c-4.223-.331-8.24-1.52-11.783-3.515-4.211 2.372-9.09 3.62-14.193 3.62-.681 0-1.358-.022-2.028-.067v9.964c0 9.78 5.012 16.463 16.221 21.575C30.953 35.55 36.006 29.6 36.85 21.226zm-20.127 14.05L9.364 22.136l2.534-3.089 8.723 6.824L41.64 5.353l2.867 2.798z"/></g></g>
    </symbol>
    <symbol id="mobile-icon" width="12" height="18" viewBox="0 0 12 18">
        <g><g><path d="M9.538 18c-1.841 0-5.243-2.701-7.372-6.72l-.04-.079.537-.432-.578.358C-.033 7.127-.474 2.594.443.867.74.313 1.185.004 1.7 0l2.176.106c.412.026.782.284.998.691l.045.092c.163.32.17.585.18.997.004.151.009.343.021.595.045.404.108.965.173 1.334.127.73-.255 1.445-.87 1.631l-.567.164c-.021-.005-.016-.033-.016-.033-.04.243.204 1.244 1.033 3.006.145.306.27.556.348.705.077.144.213.388.385.68.916 1.546 1.564 2.288 1.823 2.455l.445-.445c.458-.478 1.244-.467 1.745.006.263.248.679.592 1.012.863.161.114.312.215.43.295.339.228.55.371.728.716l.027.045c.216.408.234.884.05 1.273l-1.002 2.058c-.278.506-.743.766-1.326.766zM3.32 10.562c1.939 3.66 4.977 5.996 6.217 5.996.105 0 .155-.021.164-.029l.943-1.936-.01-.02c-.036-.048-.16-.131-.278-.212a20.091 20.091 0 0 1-.493-.34c-.384-.31-.824-.674-1.118-.952l-.347.371a1.36 1.36 0 0 1-.983.438c-.343-.006-1.085-.02-2.932-3.137a23.284 23.284 0 0 1-.418-.738 21.943 21.943 0 0 1-.379-.768c-1.553-3.3-1.19-3.999-1.034-4.298a1.43 1.43 0 0 1 .858-.72l.468-.135A32.113 32.113 0 0 1 3.794 2.6c-.017-.31-.022-.514-.026-.675-.004-.151-.008-.308-.018-.35l-.02-.035-2.055-.102c.011.01-.089.109-.182.408-.418 1.335-.152 4.98 1.747 8.565l.045.08-.542.43z"/></g></g>
    </symbol>
    <symbol id="mail-icon" width="20" height="14" viewBox="0 0 20 14">
        <g><g><path d="M19.333 1.166v11.666c0 .643-.523 1.167-1.167 1.167H1.834a1.168 1.168 0 0 1-1.167-1.167V1.166C.667.523 1.19 0 1.834 0h16.332c.644 0 1.167.523 1.167 1.166zm-1.556.389H2.222v10.889h15.555zM4.007 9.56L6.567 7l-2.56-2.562a.778.778 0 1 1 1.1-1.1L10 8.233l4.895-4.895a.777.777 0 1 1 1.1 1.1l-2.561 2.56 2.56 2.562a.778.778 0 1 1-1.099 1.1L12.334 8.1 10 10.433 7.667 8.099l-2.56 2.561a.778.778 0 0 1-1.1-1.1z"/></g></g>
    </symbol>
    <symbol id="slider-arrow-prev" width="12" height="10" viewBox="0 0 12 10">
        <g><g><path d="M3.828 5.986H12V4.001H3.828L6.4 1.411 4.986-.01 0 5.008l4.951 5.006 1.414-1.443z"/></g></g>
    </symbol>
    <symbol id="slider-arrow-next" width="12" height="10" viewBox="0 0 12 10">
        <g><g><path d="M8.172 5.986H0V4.001h8.172L5.6 1.411 7.014-.01 12 5.008l-4.951 5.006-1.414-1.443z"/></g></g>
    </symbol>
    <symbol id="loop-icon" viewBox="0 0 32 32">
        <path d="M27.414,24.586l-5.077-5.077C23.386,17.928,24,16.035,24,14c0-5.514-4.486-10-10-10S4,8.486,4,14  s4.486,10,10,10c2.035,0,3.928-0.614,5.509-1.663l5.077,5.077c0.78,0.781,2.048,0.781,2.828,0  C28.195,26.633,28.195,25.367,27.414,24.586z M7,14c0-3.86,3.14-7,7-7s7,3.14,7,7s-3.14,7-7,7S7,17.86,7,14z"/><path d="M19,14c0,0.552-0.448,1-1,1h-3v3c0,0.552-0.448,1-1,1s-1-0.448-1-1v-3h-3c-0.552,0-1-0.448-1-1s0.448-1,1-1  h3v-3c0-0.552,0.448-1,1-1s1,0.448,1,1v3h3C18.552,13,19,13.448,19,14z"/>
    </symbol>
    <symbol id="date-icon" viewBox="0 0 34 26">
        <g><g><path fill="#a0c5cf" d="M8.837 11.64H6.119V8.923h2.718zm-2.718 2.717h2.718v2.717H6.119zm27.182.008c0 5.989-4.874 10.86-10.865 10.86-1.904 0-3.692-.495-5.25-1.358H.698V3.489H3.4v17.66h10.565a10.8 10.8 0 0 1-2.394-6.784c0-1.944.523-3.802 1.48-5.442h3.347a8.066 8.066 0 0 0-2.109 5.442c0 4.49 3.654 8.143 8.147 8.143s8.147-3.653 8.147-8.143-3.646-8.159-8.14-8.159h-2.717V.772h2.702V3.49C28.415 3.494 33.3 8.379 33.3 14.365zM18.35 6.206H4.774V.772h2.703V3.49H18.35zm5.436 2.718v4.87l3.695 3.678-1.922 1.921-4.475-4.473V8.924z"/></g></g>
    </symbol>
    <symbol id="date-icon-small" viewBox="0 0 22 16">
        <g><g><path fill="#a2c5cf" d="M5.84 7.14H4.122V5.423H5.84zM4.122 8.857H5.84v1.718H4.122zm17.181.005c0 3.785-3.08 6.865-6.867 6.865a6.827 6.827 0 0 1-3.319-.859H.696V1.988h1.708v11.163h6.678a6.828 6.828 0 0 1-1.514-4.289c0-1.229.33-2.403.935-3.439h2.116a5.097 5.097 0 0 0-1.333 3.44 5.154 5.154 0 0 0 5.15 5.146c2.84 0 5.149-2.309 5.149-5.147s-2.304-5.156-5.144-5.156h-1.719V.27h1.709v1.717c3.784.003 6.872 3.09 6.872 6.874zm-9.45-5.156h-8.58V.27H4.98v1.717h6.872zm3.437 1.717v3.079l2.335 2.324-1.214 1.214-2.83-2.827v-3.79z"/></g></g>
    </symbol>
    <symbol id="date-icon-light" viewBox="0 0 38 28">
        <g><g><path fill="#dee4e3" d="M9.765 12.49H6.652V9.378h3.113zm-3.113 3.115h3.113v3.115H6.652zm31.129.01c0 6.864-5.582 12.447-12.443 12.447-2.18 0-4.228-.568-6.012-1.557H.445V3.148H3.54v20.243h12.098a12.386 12.386 0 0 1-2.742-7.777c0-2.229.6-4.357 1.694-6.237h3.834a9.25 9.25 0 0 0-2.415 6.237c0 5.147 4.184 9.334 9.33 9.334 5.144 0 9.329-4.187 9.329-9.334 0-5.147-4.175-9.351-9.32-9.351h-3.113V.034h3.094V3.15c6.857.005 12.452 5.604 12.452 12.465zM20.66 6.262H5.114V.034H8.21v3.114H20.66zm6.226 3.114v5.583l4.231 4.216-2.2 2.202-5.126-5.128V9.377z"/></g></g>
    </symbol>
    <symbol id="money-icon" viewBox="0 0 40 29">
        <g><g><path fill="#dee4e3" d="M-.096 5.103H16.38v8.246h-3.295a3.3 3.3 0 0 0-3.296 3.299 3.301 3.301 0 0 0 3.296 3.298h3.295v8.246H-.096zm3.295 19.791h9.887v-1.65c-3.635 0-6.591-2.959-6.591-6.596 0-3.638 2.956-6.597 6.59-6.597v-1.65H3.2zM18.03 5.103h16.477v23.09H18.03v-8.247h3.295a3.301 3.301 0 0 0 3.296-3.298 3.3 3.3 0 0 0-3.296-3.299H18.03zm3.295 4.948c3.635 0 6.591 2.96 6.591 6.597 0 3.637-2.956 6.597-6.59 6.597v1.65h9.886V8.401h-9.887zM39.45.155v24.74h-3.296V3.454H3.2v-3.3z"/></g></g>
    </symbol>
    <symbol id="building-icon1" viewBox="0 0 54 42">
        <g><g><path fill="#0093b7" d="M13.48 18.75H8.978v-4.5h4.502zm-4.502 4.5h4.502v4.5H8.978zm45.025.013c0 9.92-8.073 17.99-17.997 17.99-3.153 0-6.116-.82-8.696-2.251H0V5.248h4.475v29.254h17.5a17.889 17.889 0 0 1-3.966-11.239c0-3.22.867-6.298 2.45-9.014h5.546c-2.246 2.482-3.493 5.648-3.493 9.014 0 7.438 6.052 13.489 13.494 13.489S49.501 30.7 49.501 23.263c0-7.438-6.04-13.514-13.482-13.514h-4.502V.748h4.476v4.5c9.918.008 18.01 8.1 18.01 18.015zM29.24 9.75H6.753V.748h4.476v4.5h18.01zm9.005 4.502v8.067l6.121 6.092-3.184 3.182-7.413-7.41v-9.931z"/></g></g>
    </symbol>
    <symbol id="building-icon2" viewBox="0 0 46 46">
        <g><g><path fill="#0093b7" d="M45.89 22.675c0 .632-.02 1.24-.075 1.856l-.119 1.318-9.148 2.455 7.241 4.179-1.896 3.284-7.248-4.186 2.455 9.087-1.085.762a19.745 19.745 0 0 1-3.138 1.81l-1.198.543-6.643-6.643v8.36h-3.791v-8.367l-6.678 6.665-1.206-.57a20.933 20.933 0 0 1-3.095-1.798l-1.087-.764 2.457-9.083-7.25 4.186-1.896-3.285 7.243-4.18-9.15-2.455-.117-1.318a19.848 19.848 0 0 1-.076-1.856c0-.584.023-1.15.078-1.715l.13-1.306L9.75 17.21 2.49 13.017l1.896-3.285 7.246 4.183-2.486-9.22 1.092-.761c.94-.657 1.946-1.25 2.997-1.764l1.219-.596 6.79 6.805v-8.38h3.792v8.38l6.791-6.805 1.218.596a22.499 22.499 0 0 1 2.996 1.764l1.092.761-2.484 9.222 7.244-4.182 1.896 3.284-7.26 4.191 9.154 2.444.13 1.306c.055.564.077 1.13.077 1.715zm-20.854-8.93v5.722l4.962-2.864 2.77-10.275-.21-.122zM16.283 16.6l4.962 2.864v-5.72l-7.524-7.54-.208.123zm-1.91 9.022l4.976-2.873-4.95-2.857L4.181 22.62v.055c0 .07 0 .143.004.216zm6.872 6.154v-5.743l-4.955 2.862-2.743 10.144.266.154zm8.746-2.88l-4.955-2.863v5.743l7.42 7.424.278-.16zm12.108-6.277l-10.216-2.727-4.95 2.857 4.976 2.873 10.19-2.732v-.216-.055z"/></g></g>
    </symbol>
    <symbol id="building-icon3" viewBox="0 0 48 36">
        <g><g><path fill="#0093b7" d="M12.296 7.834L9.44 4.982C13.485 1.88 18.526.015 24.006.015 37.243.015 48 10.78 48 24.015h-3.99c0-11.029-8.974-20-20.004-20-4.375 0-8.413 1.427-11.71 3.819zm-8.295 16.18h-4c0-4.868 1.472-9.392 3.976-13.179L.712 7.575l2.828-2.83 16.423 16.399c1.189-.7 2.554-1.13 4.031-1.13 4.413 0 8.002 3.59 8.002 8 0 4.412-3.589 8-8.002 8s-8.002-3.588-8.002-8c0-1.481.432-2.853 1.137-4.044L6.887 13.74C5.069 16.747 4 20.253 4 24.015zm19.993 8a4.005 4.005 0 0 0 4.001-4c0-2.205-1.795-4-4-4-2.206 0-4.002 1.795-4.002 4 0 2.207 1.796 4 4.001 4z"/></g></g>
    </symbol>
    <symbol id="building-icon4" viewBox="0 0 40 47">
        <g><g><path fill="#0093b7" d="M27.413 9.84h1.93V5.93H23.55v15.645h3.862zm-13.52 23.47c0 1.08.865 1.955 1.932 1.955a1.942 1.942 0 0 0 1.931-1.956 1.942 1.942 0 0 0-1.93-1.955 1.942 1.942 0 0 0-1.932 1.955zm5.795-29.336a1.942 1.942 0 0 0 1.93-1.956 1.942 1.942 0 0 0-1.93-1.956 1.942 1.942 0 0 0-1.932 1.956c0 1.08.864 1.956 1.932 1.956zM25.48 37.22c0-1.08-.864-1.956-1.931-1.956-1.067 0-1.931.875-1.931 1.956s.864 1.956 1.931 1.956a1.942 1.942 0 0 0 1.931-1.956zm5.692-9.84a3.874 3.874 0 0 0-3.31-1.894h-9.53l-2.32 3.911h11.852l7.003 11.82-.926 1.87H5.432l-.925-1.87 11.318-19.1V5.928h-5.794v3.912h1.932v11.192L.106 41.047 3.042 47h33.29l2.937-5.953z"/></g></g>
    </symbol>
    <symbol id="building-icon5" viewBox="0 0 45 45">
        <g><g><path fill="#0093b7" d="M41.045 17.128v1.5c0 15.267-11.098 21.898-19.446 25.557l-.83.364-.83-.364C11.591 40.534.493 33.91.493 18.628V4.148l2.336.35c1.208.182 2.47.274 3.747.274 4.774 0 9.302-1.26 13.096-3.643l1.097-.69 1.097.69c3.794 2.383 8.322 3.643 13.096 3.643.537 0 1.068-.025 1.596-.057l-4.006 3.91c-4.223-.33-8.24-1.519-11.783-3.514-4.211 2.372-9.09 3.62-14.193 3.62-.681 0-1.359-.022-2.028-.068v9.965c0 9.78 5.012 16.463 16.221 21.574C30.953 35.55 36.006 29.6 36.85 21.225zm-20.128 14.05L9.364 22.136l2.534-3.089 8.723 6.824L41.639 5.352l2.867 2.799z"/></g></g>
    </symbol>
    <symbol id="building-icon6" viewBox="0 0 27 55">
        <g><g><path fill="#0093b7" d="M15.756 36.482v-2.638c0-.601-.235-1.167-.66-1.593L.001 17.149l3.182-3.185L18.28 29.067a6.715 6.715 0 0 1 1.978 4.777v2.638zm8.06-18.025L9.05 3.684 12.232.499l14.767 14.774zM6.42 36.482c-.388-1.436-1.11-2.764-2.19-3.844l-4.228-4.23 3.182-3.185 3.57 3.571c1.937 1.939 3.842 5.04 4.298 7.688zM3.183 2.705L27 26.532l-3.183 3.184L.001 5.89zm1.319 36.029h18.006v9.006c0 3.726-3.029 6.756-6.752 6.756h-4.502c-3.723 0-6.752-3.03-6.752-6.756zm4.501 9.006a2.254 2.254 0 0 0 2.251 2.253h4.502c1.242 0 2.25-1.011 2.25-2.253v-4.503H9.004z"/></g></g>
    </symbol>
    <symbol id="building-icon7" viewBox="0 0 53 57">
        <g><g><path fill="#0093b7" d="M6.568 27.838l1.828 3.165-6.568 3.404L0 31.241l6.329-3.653.166.287zM33.72 16.38l-1.828-3.166 6.33-3.65.142.248.014-.008 1.828 3.166-6.329 3.65-.143-.248zm-27.392.24l-6.33-3.656 1.829-3.164 6.328 3.655zM21.93 7.481h-3.655V.172h3.655zM7.311 22.103C7.31 15.05 13.05 9.31 20.102 9.31c5.092 0 9.49 2.998 11.545 7.315.11-.003.223-.005.335-.005 5.623 0 10.332 3.834 11.554 9.156C48.806 26.081 53 30.465 53 35.81c0 5.541-4.51 10.052-10.052 10.052h-21.93c-4.536 0-8.225-3.69-8.225-8.224 0-1.577.446-3.052 1.219-4.304-3.986-2.168-6.702-6.384-6.702-11.23zm12.792-9.138c-5.038 0-9.138 4.1-9.138 9.138 0 3.866 2.427 7.149 5.827 8.481a8.169 8.169 0 0 1 3.349-1.124 12.21 12.21 0 0 1-.038-.96c0-5.116 3.25-9.486 7.794-11.156a9.136 9.136 0 0 0-7.794-4.379zm7.31 36.552h3.656v7.31h-3.655zm-7.31 0h3.656v7.31h-3.656zm14.621 0h3.655v7.31h-3.655zm7.31 0h3.656v7.31h-3.656zm7.31-13.707a6.404 6.404 0 0 0-6.396-6.396h-2.643l-.148-1.667c-.377-4.259-3.89-7.472-8.174-7.472-4.535 0-8.224 3.69-8.224 8.225 0 2.297.917 4.419 2.582 5.975l-2.495 2.67a11.717 11.717 0 0 1-2.841-4.077 4.575 4.575 0 0 0-4.557 4.57c0 2.52 2.05 4.569 4.57 4.569h21.93a6.404 6.404 0 0 0 6.397-6.397z"/></g></g>
    </symbol>
    <symbol id="building-icon8" viewBox="0 0 42 48">
        <g><g><path fill="#0093b7" d="M16.998 33.173c-.18 3.963 1.142 5.067 5.128 10.615l-5.7-1.746a19.38 19.38 0 0 1-2.605-1.03L2.004 47.935 0 44.429l9.77-5.724-9.662-4.894 1.789-3.625 3.772 1.91c-.044-.137-.107-.266-.147-.405-1.437-5.077.012-10.62 3.976-15.208 5.637-6.432 5.506-7.723 5.506-16.479 2.99 1.867 6.688 3.753 10.001 8.994 0 2.876.276 4.195-1.374 6.77-.704-3.239-2.79-6.14-4.89-8.181-.838 5.803-3.486 8.432-6.231 11.563-3.052 3.534-4.198 7.697-3.143 11.424.583 2.053 1.8 3.807 3.529 5.183l.152.077c-.753-4.26.773-8.489 3.95-11.501zm15.037 6.352l9.842 4.833-1.739 3.648-12.45-6.078c-.023.01-.044.024-.067.034l-.036-.084-2.91-1.42-.88-1.207c-2.272-3.098-2.751-3.835-2.802-5.147l6.62 3.25c2.877-1.946 4.212-5.027 4.82-7.448.988-3.947.687-8.573-.643-12.408-1.763 4.162-5.21 7.64-8.79 9.651v-4.838c7.062-5.435 6.006-10.838 6.006-16.454 2.73 3.536 10.625 11.801 7.304 25.046a20.622 20.622 0 0 1-.543 1.796l4.248-2.459L42 33.758z"/></g></g>
    </symbol>
    <symbol id="icon-pagination" width="12" height="12" viewBox="0 0 12 12">
       <g><g><path fill="#1293b7" d="M6 .367a5.628 5.628 0 0 0-4.694 2.524V.837H.368v3.755h3.755v-.939H1.944A4.686 4.686 0 0 1 6 1.306 4.7 4.7 0 0 1 10.694 6 4.699 4.699 0 0 1 6 10.694a4.689 4.689 0 0 1-4.616-3.84.47.47 0 1 0-.923.17A5.627 5.627 0 0 0 6 11.631 5.638 5.638 0 0 0 11.632 6 5.639 5.639 0 0 0 6 .367z"/></g></g>
    </symbol>
    <symbol id="icon-location" viewBox="0 0 16 20">
       <g><g><path fill="#0093b7" d="M16.006 8.398a7.955 7.955 0 0 1-2.347 5.66l-4.793 5.18a1.202 1.202 0 0 1-1.736-.003l-4.802-5.189A7.938 7.938 0 0 1-.007 8.398c0-2.136.833-4.147 2.347-5.66A7.946 7.946 0 0 1 8 .392a7.95 7.95 0 0 1 5.66 2.348 7.941 7.941 0 0 1 2.346 5.66zm-1.602 0c.001-1.71-.666-3.317-1.877-4.527A6.362 6.362 0 0 0 8 1.993c-1.71 0-3.317.667-4.527 1.878a6.357 6.357 0 0 0-1.877 4.527 6.36 6.36 0 0 0 1.877 4.528l4.527 4.902 4.516-4.89a6.374 6.374 0 0 0 1.89-4.54zm-3.202 0a3.206 3.206 0 0 1-3.203 3.203 3.206 3.206 0 0 1-3.203-3.203c0-.856.333-1.66.937-2.264a3.178 3.178 0 0 1 2.264-.939 3.207 3.207 0 0 1 3.205 3.203zm-1.602 0a1.603 1.603 0 0 0-2.734-1.132A1.602 1.602 0 0 0 7.997 10H8C8.882 10 9.6 9.282 9.6 8.398z"/></g></g>
    </symbol>
    <symbol id="date-icon-light_type2" viewBox="0 0 33 24">
        <g><g><path fill="#fff" d="M8.243 10.66h-2.75V7.993h2.75zm-2.75 2.667h2.75v2.667h-2.75zm27.495.008c0 5.878-4.93 10.66-10.99 10.66a11.18 11.18 0 0 1-5.31-1.334H.011V2.658h2.733v17.336H13.43c-1.511-1.826-2.421-4.14-2.421-6.66 0-1.909.528-3.732 1.496-5.341h3.386c-1.371 1.47-2.133 3.347-2.133 5.342 0 4.407 3.696 7.993 8.24 7.993 4.545 0 8.24-3.586 8.24-7.993 0-4.409-3.687-8.01-8.232-8.01h-2.75V-.009h2.734V2.66c6.056.004 10.998 4.8 10.998 10.676zm-15.122-8.01H4.135V-.009h2.733v2.667h10.998zm5.499 2.668v4.781l3.738 3.61-1.944 1.886-4.527-4.391V7.993z"/></g></g>
    </symbol>
    <symbol id="icon-roulette" viewBox="0 0 31 26">
        <g><g><path fill="#fff" d="M7.944 14.478v-7.39c0-.547.445-.99.993-.99s.992.443.992.99v7.39c0 5.255 4.283 9.532 9.547 9.532s9.547-4.277 9.547-9.532c0-5.256-4.283-9.532-9.547-9.532H8.936a.992.992 0 1 1 0-1.982h10.54c6.358 0 11.532 5.165 11.532 11.514 0 6.348-5.174 11.513-11.532 11.513-6.359 0-11.532-5.165-11.532-11.513zm-7.953-7.47V3.955c0-.547.444-.99.992-.99h5.021a.991.991 0 1 1 0 1.98H1.976v2.063a.992.992 0 0 1-1.985 0zm14.121 7.47c0-2.953 2.406-5.355 5.364-5.355 2.957 0 5.363 2.402 5.363 5.355 0 2.952-2.406 5.354-5.363 5.354-2.958 0-5.364-2.402-5.364-5.354zm1.986 0a3.38 3.38 0 0 0 6.756 0 3.379 3.379 0 0 0-6.756 0zm12.945-8.404c-1.806-2.625-5.485-3.972-7.053-4.109a.991.991 0 1 1 .174-1.974c2.254.198 6.387 1.867 8.515 4.962a.989.989 0 0 1-.817 1.552.992.992 0 0 1-.819-.43z"/></g></g>
    </symbol>
    <symbol id="icon-contacts-location" width="17" height="21" viewBox="0 0 17 21">
        <g><g><path fill="#63cdd7" d="M17 8.8a8.444 8.444 0 0 1-2.492 6.008L9.42 20.306a1.275 1.275 0 0 1-1.843-.004l-5.099-5.507A8.429 8.429 0 0 1 0 8.8C0 6.531.884 4.397 2.49 2.791A8.437 8.437 0 0 1 8.499.299a8.44 8.44 0 0 1 6.009 2.492A8.432 8.432 0 0 1 17 8.799zm-1.701 0a6.745 6.745 0 0 0-1.993-4.807 6.755 6.755 0 0 0-4.807-1.994 6.751 6.751 0 0 0-4.806 1.994A6.749 6.749 0 0 0 1.7 8.799c0 1.815.707 3.521 1.993 4.807l4.806 5.204 4.795-5.192A6.767 6.767 0 0 0 15.299 8.8zm-3.4 0c0 1.873-1.525 3.4-3.4 3.4a3.404 3.404 0 0 1-3.4-3.4c0-.909.353-1.763.994-2.405a3.374 3.374 0 0 1 2.404-.996 3.404 3.404 0 0 1 3.402 3.4zm-1.7 0a1.702 1.702 0 0 0-2.903-1.203A1.7 1.7 0 0 0 8.497 10.5H8.5c.937 0 1.7-.762 1.7-1.7z"/></g></g>
    </symbol>
    <symbol id="icon-contacts-mobile" width="12" height="18" viewBox="0 0 12 18">
        <g><g><path d="M9.538 17.999c-1.841 0-5.243-2.7-7.372-6.72l-.04-.078.537-.432-.578.357C-.033 7.128-.474 2.594.443.867.738.311 1.185.003 1.7 0l2.176.106c.412.025.782.283.998.691l.045.092c.163.32.17.585.18.997.004.151.009.343.021.594.044.405.108.966.173 1.335.127.73-.255 1.444-.87 1.63l-.567.165c-.021-.005-.017-.033-.017-.033-.039.243.205 1.243 1.034 3.006.144.305.27.556.348.704.077.145.213.389.385.68.916 1.547 1.564 2.29 1.823 2.455l.445-.444c.458-.479 1.244-.467 1.745.005.263.25.679.592 1.012.864.161.113.312.215.43.294.339.228.55.371.728.716l.027.046c.216.408.234.884.05 1.273l-1.003 2.058c-.277.506-.742.766-1.325.766zM3.32 10.563c1.939 3.66 4.977 5.996 6.217 5.996.105 0 .155-.022.164-.03l.942-1.936-.01-.018c-.035-.05-.158-.132-.277-.213a20.625 20.625 0 0 1-.493-.34 21.13 21.13 0 0 1-1.118-.952l-.347.371a1.36 1.36 0 0 1-.983.438c-.344-.006-1.085-.02-2.932-3.137a22.74 22.74 0 0 1-.418-.739 22.11 22.11 0 0 1-.379-.767c-1.553-3.3-1.19-4-1.034-4.298.182-.35.495-.614.858-.72l.468-.135A32.226 32.226 0 0 1 3.794 2.6c-.017-.311-.022-.514-.026-.675-.004-.152-.008-.309-.018-.35l-.02-.035-2.055-.102c.011.01-.09.108-.182.407-.418 1.335-.152 4.981 1.747 8.566l.045.08-.542.43z"/></g></g>
    </symbol>
    <symbol id="icon-contacts-mail" width="20" height="14" viewBox="0 0 20 14">
        <g><g><path d="M19.333 1.166v11.666c0 .643-.523 1.167-1.167 1.167H1.833a1.168 1.168 0 0 1-1.166-1.167V1.166C.667.522 1.19 0 1.833 0h16.333c.643 0 1.167.522 1.167 1.166zm-1.556.389H2.222v10.888h15.555zM4.007 9.56L6.567 7l-2.56-2.562a.778.778 0 0 1 1.1-1.1L10 8.231l4.895-4.895a.778.778 0 0 1 1.1 1.1l-2.561 2.561 2.56 2.562a.777.777 0 1 1-1.1 1.1l-2.56-2.562L10 10.432 7.667 8.1l-2.56 2.56a.777.777 0 1 1-1.1-1.099z"/></g></g>
    </symbol>
    <symbol id="icon-contacts-profile" width="20" height="20" viewBox="0 0 20 20">
        <g><path fill="#63cdd7" style=" stroke:none;fill-rule:nonzero;fill-opacity:1;" d="M 9.96875 11.101562 C 12.757812 11.101562 15.023438 8.835938 15.023438 6.046875 C 15.023438 3.253906 12.757812 1.007812 9.96875 1.007812 C 7.179688 1.007812 4.914062 3.269531 4.914062 6.046875 C 4.914062 8.820312 7.179688 11.101562 9.96875 11.101562 Z M 9.96875 2.324219 C 12.015625 2.324219 13.691406 4 13.691406 6.046875 C 13.691406 8.09375 12.015625 9.765625 9.96875 9.765625 C 7.921875 9.765625 6.25 8.09375 6.25 6.046875 C 6.25 4 7.921875 2.324219 9.96875 2.324219 Z M 9.96875 2.324219 "/>
        <path fill="#63cdd7" style=" stroke:none;fill-rule:nonzero;fill-opacity:1;" d="M 1.226562 18.992188 L 18.773438 18.992188 C 19.148438 18.992188 19.441406 18.699219 19.441406 18.324219 C 19.441406 14.835938 16.605469 11.984375 13.101562 11.984375 L 6.898438 11.984375 C 3.410156 11.984375 0.558594 14.820312 0.558594 18.324219 C 0.558594 18.699219 0.851562 18.992188 1.226562 18.992188 Z M 6.898438 13.316406 L 13.101562 13.316406 C 15.644531 13.316406 17.738281 15.210938 18.0625 17.660156 L 1.9375 17.660156 C 2.261719 15.226562 4.355469 13.316406 6.898438 13.316406 Z M 6.898438 13.316406 "/></g>
    </symbol>
    <symbol id="header-search-icon" width="24" height="24" viewBox="0 0 24 24">
        <g><g><path fill="#a0c5cf" d="M10.237 20.558c-5.646 0-10.24-4.614-10.24-10.287 0-5.673 4.594-10.287 10.24-10.287s10.24 4.614 10.24 10.287c0 5.673-4.594 10.287-10.24 10.287zm0-18.066c-4.269 0-7.742 3.49-7.742 7.779s3.473 7.778 7.742 7.778 7.742-3.49 7.742-7.778c0-4.289-3.473-7.779-7.742-7.779zm12.392 21.484c-.32 0-.639-.123-.883-.367l-2.814-2.828a1.258 1.258 0 0 1 0-1.774 1.244 1.244 0 0 1 1.766 0l2.814 2.828c.488.489.488 1.283 0 1.774a1.244 1.244 0 0 1-.883.367z"/></g></g>
    </symbol>
    <symbol id="icon-facebook" width="8" height="17" viewBox="0 0 8 17">
        <g><g><path fill="#a0c5cf" d="M7.418 6.044L7.31 8.417l-2.165-.023v8.08H1.97v-8.08L.34 8.44.294 6.044h1.544c0-1.186-.275-3.837.976-4.799C4.58-.116 7.736.781 7.736.781l-.398 2.48s-1.091-.21-1.294-.21c-.303 0-.898.126-.898.884v2.109z"/></g></g>
    </symbol>
    <symbol id="icon-vk" width="19" height="12" viewBox="0 0 19 12">
        <g><g><path fill="#a0c5cf" d="M15.754 7.266c.136.183.283.359.433.527.699.784 1.428 1.531 1.978 2.472.115.192.217.4.294.614.143.405.007.769-.35.92-.2.08-.417.115-.63.148-.158.024-.322.007-.482.009h-.463v.039c-.433 0-.868-.002-1.3 0-.553.002-1.034-.226-1.424-.66-.431-.482-.825-1.012-1.24-1.514a4.123 4.123 0 0 0-.404-.423c-.333-.293-.665-.232-.823.212-.138.396-.181.837-.262 1.26-.009.044-.002.093-.002.142-.004.577-.243.902-.74.933-1.3.084-2.56-.086-3.735-.814-.995-.616-1.788-1.488-2.477-2.504C2.978 6.93 2.083 5.057 1.262 3.13 1.04 2.611.833 2.08.618 1.554l-.04-.11C.39.913.545.612 1.036.56c.126-.012.253-.004.38-.005C2.092.544 2.772.537 3.45.524c.478-.008.804.21.99.748a17.354 17.354 0 0 0 1.856 3.84c.14.216.312.418.497.584.243.216.454.14.56-.196.075-.239.122-.497.145-.75.084-.944.088-1.887-.049-2.827-.076-.518-.353-.802-.79-.903-.256-.06-.286-.176-.113-.405.23-.313.537-.455.878-.506a8.877 8.877 0 0 1 2.718-.015c.834.125.94.486.966 1.391.017.598-.03 1.197-.037 1.795-.006.582-.01 1.163.013 1.744.007.192.073.397.156.567.11.224.27.258.441.094.213-.207.418-.433.586-.684.768-1.157 1.363-2.425 1.823-3.78.19-.559.324-.66.848-.663.917 0 1.834-.008 2.75-.007.167 0 .34.016.497.07.265.09.399.347.303.641-.156.481-.307.98-.552 1.4-.608 1.047-1.269 2.052-1.906 3.077a7.948 7.948 0 0 0-.352.63.808.808 0 0 0 .075.897z"/></g></g>
    </symbol>
    <symbol id="icon-instagram" width="18" height="18" viewBox="0 0 18 18">
        <g><g><path fill="#a0c5cf" d="M17.99 9.075c0 1.33.015 2.66-.004 3.989-.022 1.454-.59 2.674-1.663 3.654a4.853 4.853 0 0 1-2.075 1.115c-.383.1-.773.157-1.17.157-2.715.002-5.43.008-8.146 0C2.782 17.98.837 16.5.227 14.433a4.917 4.917 0 0 1-.21-1.395c0-2.702-.027-5.404.01-8.107.025-1.904.92-3.345 2.56-4.308.75-.438 1.574-.63 2.442-.63 2.688.001 5.376-.008 8.065.006 1.193.006 2.25.423 3.156 1.202a4.874 4.874 0 0 1 1.656 2.893c.055.306.079.62.08.932.01 1.349.004 2.699.004 4.05zM9.003 13.99a4.991 4.991 0 0 0 4.992-4.992 5 5 0 0 0-4.93-5.004 5 5 0 0 0-5.053 4.995 4.994 4.994 0 0 0 4.99 5.001zm6.991-10.995c0-.55-.452-1.003-1.001-1.002a1.003 1.003 0 0 0-.998.998 1.005 1.005 0 0 0 .998 1.004 1.005 1.005 0 0 0 1.001-1zM12 8.99a3.002 3.002 0 0 1-2.994 3.002 3 3 0 0 1-.004-5.999A2.997 2.997 0 0 1 12 8.99z"/></g></g>
    </symbol>
    <symbol id="icon-youtube" width="18" height="13" viewBox="0 0 18 13">
        <g><g><path fill="#a0c5cf" d="M18.003 5.778V7.2c0 1.51-.18 3.027-.18 3.027s-.18 1.286-.718 1.852c-.681.746-1.447.752-1.8.796-2.518.187-6.299.191-6.299.191s-4.684-.042-6.12-.185c-.406-.08-1.303-.056-1.985-.802-.544-.566-.718-1.852-.718-1.852S.003 8.711.003 7.2V5.778c0-1.511.18-3.027.18-3.027S.357 1.465.901.899C1.583.153 2.348.147 2.7.11c2.519-.192 6.3-.192 6.3-.192h.005s3.78 0 6.299.192c.353.038 1.119.044 1.8.79.539.566.718 1.852.718 1.852s.18 1.516.18 3.027zm-5.994.521L7.146 3.664v5.252z"/></g></g>
    </symbol>
    <symbol id="icon-up" width="14" height="18" viewBox="0 0 14 18">
        <g><g><path d="M7.012 6.2L10.5 9.69l-.987.99L7.7 8.88v5.72H6.333V8.88l-1.797 1.775-1.003-.99zm6.288.7v10.5H.7V.6H7a3.513 3.513 0 0 1 3.444 2.856A3.514 3.514 0 0 1 13.3 6.9zm-1.4 0c0-1.163-.938-2.1-2.1-2.1h-.7v-.7C9.1 2.936 8.162 2 7 2H2.1v14h9.8z"/></g></g>
    </symbol>
    <symbol id="filter-chevron" viewBox="0 0 14 8">
        <path d="M1 1L7 7L13 1" stroke-width="2" stroke-linecap="round" stroke-linejoin="round"/>
    </symbol>
</svg>


